<?xml version="1.0" encoding="UTF-8" standalone="no"?><!DOCTYPE svg PUBLIC "-//W3C//DTD SVG 1.1//EN" "http://www.w3.org/Graphics/SVG/1.1/DTD/svg11.dtd"><svg width="100%" height="100%" viewBox="0 0 1919 770" version="1.1" xmlns="http://www.w3.org/2000/svg" xmlns:xlink="http://www.w3.org/1999/xlink" xml:space="preserve" xmlns:serif="http://www.serif.com/" style="fill-rule:evenodd;clip-rule:evenodd;stroke-linejoin:round;stroke-miterlimit:2;"><rect x="0.205" y="-0.338" width="1918.52" height="770.039" style="fill:none;"/><g><g><path d="M163.649,622.319l0,-14.472c11.155,3.618 22.431,5.427 33.828,5.427c15.135,0 22.703,-4.522 22.703,-13.567c0,-8.442 -5.276,-12.663 -15.829,-12.663l-13.567,0c-20.502,0 -30.753,-9.346 -30.753,-28.039c0,-18.09 13.175,-27.135 39.526,-27.135c11.336,0 22.582,1.507 33.738,4.522l0,14.472c-11.155,-3.618 -22.401,-5.427 -33.738,-5.427c-15.798,0 -23.698,4.522 -23.698,13.567c0,8.442 4.975,12.663 14.924,12.663l13.567,0c21.708,0 32.562,9.346 32.562,28.039c0,18.09 -13.145,27.135 -39.436,27.135c-11.397,0 -22.673,-1.507 -33.828,-4.522Z" style="fill:#101820;fill-rule:nonzero;"/><path d="M259.525,626.841l0,-94.972l11.306,0l2.804,11.939c9.105,-7.96 19.024,-11.939 29.758,-11.939c13.748,0 23.125,4.342 28.13,13.025c10.311,-8.683 20.773,-13.025 31.386,-13.025c21.828,0 32.743,12.03 32.743,36.089l0,58.882l-16.733,0l0,-59.787c0,-14.17 -5.97,-21.256 -17.909,-21.256c-8.924,0 -17.276,4.1 -25.054,12.301l0,68.741l-16.733,0l0,-59.515c0,-14.351 -5.909,-21.527 -17.728,-21.527c-9.407,0 -17.818,4.1 -25.235,12.301l0,68.741l-16.733,0Z" style="fill:#101820;fill-rule:nonzero;"/><path d="M418.263,598.169c0,-19.477 12.844,-29.215 38.531,-29.215c8.261,0 16.522,0.603 24.783,1.809l0,-8.954c0,-10.914 -8.532,-16.371 -25.597,-16.371c-9.768,0 -19.778,1.507 -30.029,4.522l0,-13.567c10.251,-3.015 20.261,-4.522 30.029,-4.522c28.22,0 42.33,9.829 42.33,29.486l0,65.485l-9.407,0l-5.789,-9.407c-9.467,6.271 -19.778,9.407 -30.934,9.407c-22.612,0 -33.918,-9.557 -33.918,-28.672Zm38.531,-15.648c-14.532,0 -21.798,5.125 -21.798,15.376c0,10.251 5.728,15.376 17.185,15.376c11.577,0 21.376,-3.075 29.396,-9.226l0,-19.718c-8.261,-1.206 -16.522,-1.809 -24.783,-1.809Z" style="fill:#101820;fill-rule:nonzero;"/><path d="M525.445,626.841l0,-94.972l11.306,0l2.985,12.12c8.321,-8.08 18.331,-12.12 30.029,-12.12l0,13.929c-11.336,0 -20.532,4.01 -27.587,12.03l0,69.013l-16.733,0Z" style="fill:#101820;fill-rule:nonzero;"/><path d="M586.498,516.493l10.492,0l3.618,15.376l25.688,0l0,13.567l-23.065,0l0,54.541c0,8.864 3.829,13.296 11.487,13.296l11.577,0l0,13.567l-15.919,0c-15.919,0 -23.879,-8.532 -23.879,-25.597l0,-84.751Z" style="fill:#101820;fill-rule:nonzero;"/><path d="M692.776,516.493l10.492,0l3.618,15.376l25.688,0l0,13.567l-23.065,0l0,54.541c0,8.864 3.829,13.296 11.487,13.296l11.577,0l0,13.567l-15.919,0c-15.919,0 -23.879,-8.532 -23.879,-25.597l0,-84.751Z" style="fill:#101820;fill-rule:nonzero;"/><path d="M792.994,531.869c27.014,0 40.521,13.356 40.521,40.069c0,3.799 -0.271,7.869 -0.814,12.211l-66.661,0c0,19.416 11.336,29.125 34.009,29.125c10.794,0 20.381,-1.206 28.763,-3.618l0,13.567c-8.382,2.412 -18.572,3.618 -30.572,3.618c-32.622,0 -48.933,-16.19 -48.933,-48.571c0,-30.934 14.562,-46.4 43.687,-46.4Zm-26.954,38.35l51.375,0c-0.362,-16.643 -8.502,-24.964 -24.421,-24.964c-16.884,0 -25.868,8.321 -26.954,24.964Z" style="fill:#101820;fill-rule:nonzero;"/><path d="M927.491,624.128c-7.839,1.809 -16.281,2.713 -25.326,2.713c-33.768,0 -50.651,-16.432 -50.651,-49.295c0,-30.451 16.884,-45.677 50.651,-45.677c9.045,0 17.487,0.904 25.326,2.713l0,13.567c-7.839,-1.809 -16.582,-2.713 -26.23,-2.713c-22.009,0 -33.014,10.703 -33.014,32.109c0,23.818 11.005,35.727 33.014,35.727c9.648,0 18.391,-0.904 26.23,-2.713l0,13.567Z" style="fill:#101820;fill-rule:nonzero;"/><path d="M948.747,626.841l0,-129.342l16.733,0l0,44.682c8.08,-6.874 17.939,-10.311 29.577,-10.311c23.698,0 35.546,11.789 35.546,35.366l0,59.606l-16.733,0l0,-59.877c0,-14.11 -7.025,-21.165 -21.075,-21.165c-9.588,0 -18.693,4.01 -27.316,12.03l0,69.013l-16.733,0Z" style="fill:#101820;fill-rule:nonzero;"/><path d="M1057.738,626.841l0,-94.972l11.306,0l2.985,12.12c9.708,-8.08 20.381,-12.12 32.019,-12.12c23.698,0 35.546,11.789 35.546,35.366l0,59.606l-16.733,0l0,-59.877c0,-14.11 -7.025,-21.165 -21.075,-21.165c-9.588,0 -18.693,4.01 -27.316,12.03l0,69.013l-16.733,0Z" style="fill:#101820;fill-rule:nonzero;"/><path d="M1178.94,578.993c0,22.853 9.497,34.28 28.491,34.28c18.994,0 28.491,-11.427 28.491,-34.28c0,-22.371 -9.497,-33.557 -28.491,-33.557c-18.994,0 -28.491,11.186 -28.491,33.557Zm-16.643,0.362c0,-31.657 15.06,-47.486 45.179,-47.486c30.12,0 45.179,15.829 45.179,47.486c0,31.597 -15.09,47.395 -45.27,47.395c-30.059,0 -45.089,-15.798 -45.089,-47.395Z" style="fill:#101820;fill-rule:nonzero;"/><rect x="1276.172" y="497.499" width="16.733" height="129.342" style="fill:#101820;fill-rule:nonzero;"/><path d="M1333.155,578.993c0,22.853 9.497,34.28 28.491,34.28c18.994,0 28.491,-11.427 28.491,-34.28c0,-22.371 -9.497,-33.557 -28.491,-33.557c-18.994,0 -28.491,11.186 -28.491,33.557Zm-16.643,0.362c0,-31.657 15.06,-47.486 45.179,-47.486c30.12,0 45.179,15.829 45.179,47.486c0,31.597 -15.09,47.395 -45.27,47.395c-30.059,0 -45.089,-15.798 -45.089,-47.395Z" style="fill:#101820;fill-rule:nonzero;"/><path d="M1492.979,547.969c-5.728,-1.447 -12.814,-2.171 -21.256,-2.171c-20.2,0 -30.3,10.944 -30.3,32.833c0,22.492 9.557,33.738 28.672,33.738c8.683,0 16.311,-1.628 22.884,-4.884l0,-59.515Zm16.733,78.872c0,22.914 -14.562,34.371 -43.687,34.371c-11.698,0 -22.07,-1.507 -31.114,-4.522l0,-13.567c9.226,3.015 19.658,4.522 31.295,4.522c17.849,0 26.773,-6.934 26.773,-20.803l0,-4.522c-7.115,3.015 -14.773,4.522 -22.974,4.522c-30.029,0 -45.044,-16.009 -45.044,-48.028c0,-31.295 15.829,-46.943 47.486,-46.943c12.844,0 25.265,1.296 37.265,3.889l0,91.082Z" style="fill:#101820;fill-rule:nonzero;"/><path d="M1555.389,531.869l0,94.972l-16.733,0l0,-94.972l16.733,0Zm0,-34.371l0,15.829l-16.733,0l0,-15.829l16.733,0Z" style="fill:#101820;fill-rule:nonzero;"/><path d="M1623.497,531.869c27.014,0 40.521,13.356 40.521,40.069c0,3.799 -0.271,7.869 -0.814,12.211l-66.661,0c0,19.416 11.336,29.125 34.009,29.125c10.794,0 20.381,-1.206 28.763,-3.618l0,13.567c-8.382,2.412 -18.572,3.618 -30.572,3.618c-32.622,0 -48.933,-16.19 -48.933,-48.571c0,-30.934 14.562,-46.4 43.687,-46.4Zm-26.954,38.35l51.375,0c-0.362,-16.643 -8.502,-24.964 -24.421,-24.964c-16.884,0 -25.868,8.321 -26.954,24.964Z" style="fill:#101820;fill-rule:nonzero;"/><path d="M1685.635,622.319l0,-14.472c11.155,3.618 22.431,5.427 33.828,5.427c15.135,0 22.703,-4.522 22.703,-13.567c0,-8.442 -5.276,-12.663 -15.829,-12.663l-13.567,0c-20.502,0 -30.753,-9.346 -30.753,-28.039c0,-18.09 13.175,-27.135 39.526,-27.135c11.336,0 22.582,1.507 33.738,4.522l0,14.472c-11.155,-3.618 -22.401,-5.427 -33.738,-5.427c-15.798,0 -23.698,4.522 -23.698,13.567c0,8.442 4.975,12.663 14.924,12.663l13.567,0c21.708,0 32.562,9.346 32.562,28.039c0,18.09 -13.145,27.135 -39.436,27.135c-11.397,0 -22.673,-1.507 -33.828,-4.522Z" style="fill:#101820;fill-rule:nonzero;"/></g><g><path d="M170.184,386.43l0,-48.734c29.105,10.83 62,16.245 98.686,16.245c44.537,0 66.806,-14.891 66.806,-44.672c0,-21.659 -13.672,-32.489 -41.017,-32.489l-45.485,0c-59.428,0 -89.142,-27.074 -89.142,-81.223c0,-59.563 42.303,-89.345 126.91,-89.345c32.489,0 63.286,4.738 92.391,14.214l0,48.734c-29.105,-10.83 -59.902,-16.245 -92.391,-16.245c-48.734,0 -73.1,14.214 -73.1,42.642c0,21.659 11.777,32.489 35.332,32.489l45.485,0c63.218,0 94.827,27.074 94.827,81.223c0,60.917 -40.205,91.376 -120.616,91.376c-36.686,0 -69.581,-4.738 -98.686,-14.214Z" style="fill:#be3c80;fill-rule:nonzero;"/><path d="M404.714,185.404l57.059,0l53.81,153.511l52.592,-153.511l56.044,0l-88.533,219.504c-15.703,38.716 -40.814,66.264 -75.334,82.644l-25.991,-36.753c23.825,-10.424 41.153,-27.413 51.983,-50.967l-81.629,-214.428Z" style="fill:#be3c80;fill-rule:nonzero;"/><path d="M649.601,398.614l0,-213.21l41.627,0l6.701,31.271c20.441,-20.847 43.725,-31.271 69.851,-31.271c50.493,0 75.74,26.262 75.74,78.786l0,134.424l-53.81,0l0,-134.424c0,-23.555 -11.71,-35.332 -35.129,-35.332c-17.463,0 -34.52,6.972 -51.17,20.915l0,148.841l-53.81,0Z" style="fill:#be3c80;fill-rule:nonzero;"/><path d="M884.131,332.214c0,-42.371 30.865,-63.557 92.594,-63.557c14.485,0 28.969,1.354 43.454,4.061l0,-16.041c0,-19.087 -13.74,-28.631 -41.221,-28.631c-23.284,0 -49.14,3.384 -77.568,10.153l0,-42.642c28.428,-6.769 54.284,-10.153 77.568,-10.153c63.354,0 95.031,23.419 95.031,70.258l0,142.952l-31.271,0l-19.087,-19.087c-18.546,12.725 -38.987,19.087 -61.323,19.087c-52.118,0 -78.177,-22.133 -78.177,-66.4Zm136.048,-22.945c-13.537,-2.707 -28.022,-4.061 -43.454,-4.061c-25.856,0 -38.784,8.799 -38.784,26.397c0,18.952 10.83,28.428 32.489,28.428c17.869,0 34.452,-5.55 49.749,-16.651l0,-34.114Z" style="fill:#be3c80;fill-rule:nonzero;"/><path d="M1178.563,342.976c13.402,7.31 27.819,10.965 43.251,10.965c32.083,0 48.124,-22.539 48.124,-67.618c0,-38.31 -17.734,-57.465 -53.201,-57.465c-15.297,0 -28.022,0.948 -38.175,2.843l0,111.275Zm-53.81,-148.841c28.293,-5.821 58.21,-8.731 89.751,-8.731c72.424,0 108.635,33.775 108.635,101.325c0,74.589 -33.707,111.884 -101.122,111.884c-14.349,0 -28.834,-3.384 -43.454,-10.153l0,87.314l-53.81,0l0,-281.64Z" style="fill:#be3c80;fill-rule:nonzero;"/><path d="M1363.751,388.461l0,-44.672c23.69,9.476 51.035,14.214 82.035,14.214c23.148,0 34.723,-7.445 34.723,-22.336c0,-14.214 -23.352,-21.321 -23.352,-21.321l-38.581,0c-43.319,0 -64.978,-21.321 -64.978,-63.963c0,-44.672 31.609,-67.009 94.827,-67.009c26.803,0 52.05,4.061 75.74,12.183l0,44.672c-23.69,-9.476 -49.41,-14.214 -77.162,-14.214c-29.105,0 -43.657,7.445 -43.657,22.336c0,14.214 8.461,21.321 25.382,21.321l34.52,0c47.38,0 71.07,21.321 71.07,63.963c0,44.672 -30.188,67.009 -90.563,67.009c-29.646,0 -56.314,-4.061 -80.004,-12.183Z" style="fill:#be3c80;fill-rule:nonzero;"/><path d="M1661.838,185.404c64.707,0 97.061,33.031 97.061,99.092c0,8.799 -0.609,17.598 -1.828,26.397l-141.531,0c0,30.052 22.065,45.079 66.196,45.079c21.524,0 43.048,-2.031 64.572,-6.092l0,42.642c-18.817,4.061 -41.694,6.092 -68.633,6.092c-77.297,0 -115.945,-36.347 -115.945,-109.041c0,-69.445 33.369,-104.168 100.107,-104.168Zm-46.297,88.127l90.969,0l0,-1.624c0,-29.511 -14.891,-44.266 -44.672,-44.266c-28.428,0 -43.86,15.297 -46.297,45.891Z" style="fill:#be3c80;fill-rule:nonzero;"/></g></g></svg>